{
  "accessors": [
    {
      "bufferView": 2,
      "componentType": 5126,
      "count": 27658,
      "max": [
        3.5990190505981445,
        0.5427970886230469,
        2.613353967666626
      ],
      "min": [
        0.0,
        0.0,
        0.0
      ],
      "type": "VEC3"
    },
    {
      "bufferView": 2,
      "byteOffset": 331896,
      "componentType": 5126,
      "count": 27658,
      "max": [
        0.9999997615814209,
        0.9999982118606567,
        0.9999989867210388
      ],
      "min": [
        -0.9999970197677612,
        -0.9999995231628418,
        -0.999999463558197
      ],
      "type": "VEC3"
    },
    {
      "bufferView": 1,
      "componentType": 5126,
      "count": 27658,
      "max": [
        0.9956669807434082,
        0.9994300007820129
      ],
      "min": [
        0.0016039999900385737,
        0.0039059999398887157
      ],
      "type": "VEC2"
    },
    {
      "bufferView": 0,
      "componentType": 5125,
      "count": 150000,
      "type": "SCALAR"
    }
  ],
  "asset": {
    "extras": {
      "author": "Ubi3D (https://sketchfab.com/ubi3d)",
      "license": "CC-BY-4.0 (http://creativecommons.org/licenses/by/4.0/)",
      "source": "https://sketchfab.com/3d-models/sketchfab-3d-challenge-book-robbedoes-b59fa77caa1043e9bf13424d607c1434",
      "title": "Sketchfab 3D Challenge: Book 'Robbedoes'"
    },
    "generator": "Sketchfab-12.67.0",
    "version": "2.0"
  },
  "bufferViews": [
    {
      "buffer": 0,
      "byteLength": 600000,
      "name": "floatBufferViews",
      "target": 34963
    },
    {
      "buffer": 0,
      "byteLength": 221264,
      "byteOffset": 600000,
      "byteStride": 8,
      "name": "floatBufferViews",
      "target": 34962
    },
    {
      "buffer": 0,
      "byteLength": 663792,
      "byteOffset": 821264,
      "byteStride": 12,
      "name": "floatBufferViews",
      "target": 34962
    }
  ],
  "buffers": [
    {
      "byteLength": 1485056,
      "uri": "scene.bin"
    }
  ],
  "images": [
    {
      "uri": "textures/material_0_baseColor.jpeg"
    }
  ],
  "materials": [
    {
      "doubleSided": true,
      "name": "material_0",
      "pbrMetallicRoughness": {
        "baseColorTexture": {
          "index": 0
        },
        "metallicFactor": 0.0,
        "roughnessFactor": 0.6
      }
    }
  ],
  "meshes": [
    {
      "name": "Object_0",
      "primitives": [
        {
          "attributes": {
            "NORMAL": 1,
            "POSITION": 0,
            "TEXCOORD_0": 2
          },
          "indices": 3,
          "material": 0,
          "mode": 4
        }
      ]
    }
  ],
  "nodes": [
    {
      "children": [
        1
      ],
      "matrix": [
        -0.1782793424324467,
        0.42745687786562303,
        0.4981942315422573,
        0.0,
        -0.17618182249476888,
        -0.5284571214073709,
        0.39037597377853206,
        0.0,
        0.6323581489878762,
        -0.026721900850983415,
        0.24921777567244163,
        0.0,
        -0.26280200481414795,
        5.65663528442383,
        -8.53153324127197,
        1.0
      ],
      "name": "Sketchfab_model"
    },
    {
      "children": [
        2
      ],
      "matrix": [
        1.0,
        0.0,
        0.0,
        0.0,
        0.0,
        1.0,
        0.0,
        0.0,
        0.0,
        0.0,
        1.0,
        0.0,
        -2.603501081466675,
        5.347253799438477,
        -0.5500720143318176,
        1.0
      ],
      "name": "Robbedoes.obj.cleaner.gles"
    },
    {
      "mesh": 0,
      "name": "Object_2"
    }
  ],
  "samplers": [
    {
      "magFilter": 9729,
      "minFilter": 9987,
      "wrapS": 10497,
      "wrapT": 10497
    }
  ],
  "scene": 0,
  "scenes": [
    {
      "name": "Sketchfab_Scene",
      "nodes": [
        0
      ]
    }
  ],
  "textures": [
    {
      "sampler": 0,
      "source": 0
    }
  ]
}
